<?xml version="1.0" encoding="utf-8"?>
<!-- Generator: Adobe Illustrator 26.3.1, SVG Export Plug-In . SVG Version: 6.00 Build 0)  -->
<svg version="1.1" id="Layer_1" xmlns="http://www.w3.org/2000/svg" xmlns:xlink="http://www.w3.org/1999/xlink" x="0px" y="0px"
	 viewBox="0 0 400 400" style="enable-background:new 0 0 400 400;" xml:space="preserve">
<path id="XMLID_27_" d="M18.2,218.2h319.7l-59.9,59.9c-7.1,7.1-7.1,18.6,0,25.7c3.6,3.5,8.2,5.3,12.9,5.3s9.3-1.8,12.9-5.3
	l90.9-90.9c7.1-7.1,7.1-18.6,0-25.7l-90.9-90.9c-7.1-7.1-18.6-7.1-25.7,0c-7.1,7.1-7.1,18.6,0,25.7l59.9,59.9H18.2
	C8.1,181.8,0,190,0,200C0,210,8.1,218.2,18.2,218.2z"/>
</svg>
